<svg xmlns="http://www.w3.org/2000/svg" width="94" height="121" viewBox="0 0 94 121">
    <g fill="none" fill-rule="evenodd">
        <g fill="#A0A0A0" fill-rule="nonzero">
            <path d="M839 1587c12.13 0 22 9.87 22 22s-9.87 22-22 22-22-9.87-22-22 9.87-22 22-22zm0 3.504c-10.199 0-18.497 8.297-18.497 18.496 0 10.2 8.298 18.497 18.497 18.497s18.497-8.298 18.497-18.497-8.298-18.496-18.497-18.496zm-.5 5.496c.452 0 .905.173 1.25.52l7.732 7.763c.69.693.69 1.818 0 2.51-.69.694-1.81.694-2.5.001l-4.714-4.733v17.164c0 .98-.792 1.775-1.768 1.775s-1.768-.795-1.768-1.775v-17.164l-4.714 4.733c-.69.693-1.81.693-2.5 0-.69-.694-.69-1.818 0-2.51l7.732-7.764c.345-.347.798-.52 1.25-.52zm28.641-86c2.874 0 5.226 2.294 5.341 5.157l.005.222v13.502l8.997 9.052c.29.29.467.672.507 1.078l.009.175v73.502c0 2.856-2.251 5.193-5.062 5.308l-.217.004h-11.315c-.973 0-1.761-.794-1.761-1.773 0-.93.712-1.692 1.617-1.766l.144-.006h11.315c.92 0 1.676-.715 1.75-1.622l.006-.145v-71.73l-17.265-.003c-.924 0-1.682-.716-1.756-1.627l-.006-.145v-17.367h-57.906c-.92 0-1.677.715-1.75 1.622l-.006.145v9.589c0 .979-.789 1.772-1.761 1.772-.925 0-1.683-.716-1.756-1.627l-.006-.145v-9.59c0-2.855 2.251-5.191 5.062-5.306l.217-.004h59.668c.41 0 .803.142 1.117.4l.129.119 6.506 6.545v-9.957c0-.961-.738-1.751-1.673-1.828l-.15-.006H793.28c-.92 0-1.676.715-1.75 1.622l-.006.144v89.106c0 .926.711 1.687 1.612 1.76l.144.007h2.986v-64.761c0-.98.789-1.773 1.762-1.773.924 0 1.682.716 1.755 1.628l.006.145v71.266c0 .925.711 1.686 1.612 1.76l.144.006h11.452c.973 0 1.761.793 1.761 1.772 0 .93-.712 1.693-1.617 1.767l-.144.006h-11.452c-2.838 0-5.16-2.265-5.275-5.093l-.004-.218v-2.96h-2.986c-2.838 0-5.16-2.265-5.275-5.093l-.004-.219v-89.106c0-2.855 2.251-5.192 5.062-5.307l.217-.004h73.862zm-6.925 62c.985 0 1.784.895 1.784 2 0 1.052-.725 1.914-1.645 1.994l-.14.006h-8.43c-.986 0-1.785-.895-1.785-2 0-1.052.725-1.914 1.645-1.994l.14-.006h8.43zm-16.975 0c.972 0 1.759.895 1.759 2 0 1.052-.714 1.914-1.621 1.994l-.138.006H817.76c-.972 0-1.759-.895-1.759-2 0-1.052.714-1.914 1.621-1.994l.138-.006h25.482zm16.985-10c.98 0 1.774.895 1.774 2 0 1.052-.72 1.914-1.636 1.994l-.138.006h-42.452c-.98 0-1.774-.895-1.774-2 0-1.052.72-1.914 1.636-1.994l.138-.006h42.452zm0-11c.98 0 1.774.895 1.774 2 0 1.052-.72 1.914-1.636 1.994l-.138.006h-42.452c-.98 0-1.774-.895-1.774-2 0-1.052.72-1.914 1.636-1.994l.138-.006h42.452zm2.748-26.677v13.087l13.01.003-13.01-13.09z" transform="translate(-788.000000, -1510.000000)"/>
        </g>
    </g>
</svg>
