<?xml version="1.0" encoding="UTF-8"?>
<svg width="178px" height="127px" viewBox="0 0 178 127" version="1.1" xmlns="http://www.w3.org/2000/svg" xmlns:xlink="http://www.w3.org/1999/xlink">
    <!-- Generator: Sketch 58 (84663) - https://sketch.com -->
    <title>Group 2</title>
    <desc>Created with Sketch.</desc>
    <g id="K、商品管理" stroke="none" stroke-width="1" fill="none" fill-rule="evenodd">
        <g id="K-1-1商品管理-商品資料管理-新增/編輯商品資料" transform="translate(-765.000000, -446.000000)">
            <g id="Group-2" transform="translate(767.000000, 442.000000)">
                <path d="M139.666667,36.5206612 C145.584003,36.5206612 150.380952,41.3559859 150.380952,47.3206612 C150.380952,47.6689758 150.364594,48.0134392 150.33261,48.3533135 C154.640916,48.8317854 158,52.70434 158,57.4105724 C158,59.7617168 157.161636,61.9047909 155.785237,63.5206612 L155.619,63.5046612 L155.619048,63.5206612 L114.666667,63.5206612 L114.666667,63.5206612 C110.984768,63.5206612 108,60.4436363 108,56.6479339 C108,52.8522314 110.984768,49.7752066 114.666667,49.7752066 C115.813878,49.7752066 116.89341,50.0739335 117.836063,50.6000489 C117.63228,49.8710784 117.52381,49.0998378 117.52381,48.3024793 C117.52381,43.6934121 121.148171,39.9570248 125.619048,39.9570248 C127.467811,39.9570248 129.171826,40.5959191 130.534679,41.6712219 C132.418044,38.5814669 135.803602,36.5206612 139.666667,36.5206612 Z" id="Combined-Shape-Copy-4" stroke="#8F8F8F" stroke-width="3" fill="#FFFFFF" stroke-linecap="round" stroke-linejoin="round"></path>
                <path d="M119.875559,82.811143 C123.927038,79.0578291 130.254072,79.2995394 134.007386,83.3510181 L134.007386,83.3510181 L174,126.520661 L145.203,126.517948 L111,92.7719485 L119.180451,83.5225201 C119.326957,83.3568477 119.478899,83.1961039 119.636022,83.0405496 Z" id="Combined-Shape-Copy" stroke="#8F8F8F" stroke-width="3" fill="#DDDDDD" stroke-linecap="round" stroke-linejoin="round"></path>
                <g id="Group-Copy" transform="translate(86.334977, 26.920534) rotate(-14.000000) translate(-86.334977, -26.920534) translate(64.334977, 4.920534)" stroke-linecap="round" stroke-linejoin="round" stroke-width="3">
                    <ellipse id="Oval" stroke="#C4C4C4" cx="22.1807494" cy="22.0245466" rx="8.999721" ry="8.87526032"></ellipse>
                    <path d="M22.1092174,0.0782346197 L22.1092174,4.759423" id="Path-2-Copy-4" stroke="#8F8F8F"></path>
                    <path d="M35.7783336,5.64215131 L35.7407537,11.1251142" id="Path-2-Copy-4" stroke="#8F8F8F" transform="translate(35.759544, 8.383633) rotate(45.000000) translate(-35.759544, -8.383633) "></path>
                    <path d="M41.2355889,19.5803028 L41.2355889,24.4450169" id="Path-2-Copy-4" stroke="#8F8F8F" transform="translate(41.235589, 22.012660) rotate(90.000000) translate(-41.235589, -22.012660) "></path>
                    <path d="M35.7407537,33.0232517 L35.7783336,38.5062146" id="Path-2-Copy-4" stroke="#8F8F8F" transform="translate(35.759544, 35.764733) rotate(135.000000) translate(-35.759544, -35.764733) "></path>
                    <path d="M21.8979482,38.5918668 L21.8979482,43.2730552" id="Path-2-Copy-4" stroke="#8F8F8F" transform="translate(21.897948, 40.990586) rotate(180.000000) translate(-21.897948, -40.990586) "></path>
                    <path d="M8.01930623,33.0232517 L7.98172635,38.5062146" id="Path-2-Copy-4" stroke="#8F8F8F" transform="translate(8.000516, 35.764733) rotate(225.000000) translate(-8.000516, -35.764733) "></path>
                    <path d="M2.65388866,19.4880159 L2.65388866,24.3527299" id="Path-2-Copy-4" stroke="#8F8F8F" transform="translate(2.653889, 21.920373) rotate(270.000000) translate(-2.653889, -21.920373) "></path>
                    <path d="M7.98172635,5.64215131 L8.01930623,11.1251142" id="Path-2-Copy-4" stroke="#8F8F8F" transform="translate(8.000516, 8.383633) rotate(315.000000) translate(-8.000516, -8.383633) "></path>
                </g>
                <path d="M33.6666667,8.52066116 C39.5840033,8.52066116 44.3809524,13.3559859 44.3809524,19.3206612 C44.3809524,19.6689758 44.3645942,20.0134392 44.33261,20.3533135 C48.6409164,20.8317854 52,24.70434 52,29.4105724 C52,31.7617168 51.1616359,33.9047909 49.7852373,35.5206612 L49.619,35.5046612 L49.6190476,35.5206612 L8.66666667,35.5206612 L8.66666667,35.5206612 C4.98476833,35.5206612 2,32.4436363 2,28.6479339 C2,24.8522314 4.98476833,21.7752066 8.66666667,21.7752066 C9.81387802,21.7752066 10.8934099,22.0739335 11.8360629,22.6000489 C11.6322803,21.8710784 11.5238095,21.0998378 11.5238095,20.3024793 C11.5238095,15.6934121 15.1481711,11.9570248 19.6190476,11.9570248 C21.4678106,11.9570248 23.1718258,12.5959191 24.5346786,13.6712219 C26.4180441,10.5814669 29.8036019,8.52066116 33.6666667,8.52066116 Z" id="Combined-Shape-Copy-4" stroke="#8F8F8F" stroke-width="3" fill="#FFFFFF" stroke-linecap="round" stroke-linejoin="round" transform="translate(27.000000, 22.020661) scale(-1, 1) translate(-27.000000, -22.020661) "></path>
                <path d="M63.9540481,60.936631 L0,128.520661 L0,128.520661 L147,128.520661 L78.2402475,60.6908986 C74.3085063,56.8123351 67.9770033,56.855444 64.0984397,60.7871852 C64.0497928,60.8364991 64.0016597,60.886317 63.9540481,60.936631 Z" id="Path-4-Copy" stroke="#8F8F8F" stroke-width="3" fill="#C4C4C4" stroke-linecap="round" stroke-linejoin="round"></path>
                <path d="M63.9457411,62.2300411 L52,76.0024044 L52,76.0024044 L58.2696922,81.2235355 C59.9182329,82.5963696 62.2588167,82.7645585 64.0867041,81.6415325 L72.5034835,76.4703923 C74.2650664,75.3881027 76.5110895,75.5016414 78.1545496,76.7560591 L81.4774111,79.2923279 C83.4417325,80.7916522 86.2067284,80.6311174 87.9843353,78.9145378 L91,76.0024044 L91,76.0024044 L79.0542589,62.2300411 C75.4355009,58.0579391 69.119761,57.6093652 64.947659,61.2281232 C64.590416,61.5379852 64.2556031,61.8727981 63.9457411,62.2300411 Z" id="Path-2-Copy" fill="#FFFFFF"></path>
                <path d="M50,109.520661 L61.7240447,109.520661" id="Path-3-Copy-3" stroke="#DDDDDD" stroke-width="3" stroke-linecap="round" stroke-linejoin="round"></path>
                <path d="M40,102.520661 L49.7222222,102.520661" id="Path-3-Copy-4" stroke="#A2A2A2" stroke-width="3" stroke-linecap="round" stroke-linejoin="round"></path>
                <path d="M42,117.520661 L58,117.520661" id="Path-3-Copy-5" stroke="#A2A2A2" stroke-width="3" stroke-linecap="round" stroke-linejoin="round"></path>
            </g>
        </g>
    </g>
</svg>