<svg xmlns="http://www.w3.org/2000/svg" width="80" height="53" viewBox="0 0 80 53">
    <g fill="none" fill-rule="evenodd" stroke-linecap="round" stroke-linejoin="round">
        <g stroke="#39f">
            <g>
                <path d="M68.467 19c3.077 0 5.571 2.328 5.571 5.2 0 .168-.008.334-.025.498 2.24.23 3.987 2.094 3.987 4.36 0 1.132-.436 2.164-1.152 2.942l-.087-.008V32H55.468h0C53.552 32 52 30.518 52 28.69c0-1.827 1.552-3.308 3.467-3.308.597 0 1.159.144 1.65.398-.108-.351-.165-.723-.165-1.107 0-2.22 1.885-4.018 4.21-4.018.961 0 1.848.307 2.556.825.98-1.488 2.74-2.48 4.749-2.48z" transform="translate(-412.000000, -473.000000) translate(413.000000, 470.000000)"/>
                <g transform="translate(-412.000000, -473.000000) translate(413.000000, 470.000000) translate(43.500000, 14.000000) rotate(-14.000000) translate(-43.500000, -14.000000) translate(32.000000, 3.000000)">
                    <ellipse cx="11.218" cy="11.118" rx="4.552" ry="4.48"/>
                    <path d="M11.182.04v2.363"/>
                    <path d="M18.096 2.847l-.021 2.77" transform="translate(18.085286, 4.232110) rotate(45.000000) translate(-18.085286, -4.232110)"/>
                    <path d="M20.855 9.882v2.46" transform="translate(20.854781, 11.112127) rotate(90.000000) translate(-20.854781, -11.112127)"/>
                    <path d="M18.075 16.669l.021 2.77" transform="translate(18.085286, 18.054259) rotate(135.000000) translate(-18.085286, -18.054259)"/>
                    <path d="M11.075 19.481v2.364" transform="translate(11.074824, 20.692302) rotate(180.000000) translate(-11.074824, -20.692302)"/>
                    <path d="M4.057 16.669l-.022 2.77" transform="translate(4.046238, 18.054259) rotate(225.000000) translate(-4.046238, -18.054259)"/>
                    <path d="M1.342 9.835v2.46" transform="translate(1.342197, 11.065540) rotate(270.000000) translate(-1.342197, -11.065540)"/>
                    <path d="M4.035 2.847l.022 2.77" transform="translate(4.046238, 4.232110) rotate(315.000000) translate(-4.046238, -4.232110)"/>
                </g>
                <path d="M18.433 25.984L0 55h50L30.128 25.8c-2.175-3.197-6.529-4.024-9.725-1.85-.788.537-1.459 1.23-1.97 2.034z" transform="translate(-412.000000, -473.000000) translate(413.000000, 470.000000)"/>
                <path d="M19.31 25.4L16 30.315h0l.802.64c1.638 1.305 3.917 1.452 5.708.367l1.355-.821c1.13-.684 2.534-.735 3.71-.133 1.115.571 2.475.321 3.315-.61l.963-1.067h0l-2.839-3.633c-2.04-2.611-5.81-3.074-8.422-1.033-.497.388-.93.852-1.282 1.375zM16 47.09h5.862M10 44.09h4.861M11 51.09h8" transform="translate(-412.000000, -473.000000) translate(413.000000, 470.000000)"/>
            </g>
        </g>
    </g>
</svg>
